<svg xmlns="http://www.w3.org/2000/svg" xmlns:xlink="http://www.w3.org/1999/xlink" width="500" zoomAndPan="magnify" viewBox="0 0 375 374.999991" height="500" preserveAspectRatio="xMidYMid meet" version="1.0"><defs><g/><clipPath id="190044cb54"><path d="M 148.078125 83.15625 L 226.828125 83.15625 L 226.828125 155.15625 L 148.078125 155.15625 Z M 148.078125 83.15625 " clip-rule="nonzero"/></clipPath></defs><rect x="-37.5" width="450" fill="#ffffff" y="-37.499999" height="449.999989" fill-opacity="1"/><rect x="-37.5" width="450" fill="#ffffff" y="-37.499999" height="449.999989" fill-opacity="1"/><rect x="-37.5" width="450" fill="#1d561a" y="-37.499999" height="449.999989" fill-opacity="1"/><g fill="#ffffff" fill-opacity="1"><g transform="translate(87.267534, 195.263021)"><g><path d="M 1.703125 -23.46875 L 8.984375 -23.46875 C 11.191406 -23.46875 12.945312 -23 14.25 -22.0625 C 15.5625 -21.125 16.21875 -19.601562 16.21875 -17.5 C 16.21875 -15.144531 15.238281 -13.46875 13.28125 -12.46875 C 16.625 -11.875 18.296875 -9.898438 18.296875 -6.546875 C 18.296875 -4.566406 17.613281 -2.976562 16.25 -1.78125 C 14.882812 -0.59375 13.003906 0 10.609375 0 L 1.703125 0 Z M 7.0625 -14.28125 L 7.484375 -14.28125 C 8.679688 -14.28125 9.570312 -14.488281 10.15625 -14.90625 C 10.75 -15.320312 11.046875 -16.003906 11.046875 -16.953125 C 11.046875 -18.546875 9.859375 -19.34375 7.484375 -19.34375 L 7.0625 -19.34375 Z M 7.0625 -4.125 L 8.734375 -4.125 C 11.347656 -4.125 12.65625 -5 12.65625 -6.75 C 12.65625 -7.789062 12.328125 -8.535156 11.671875 -8.984375 C 11.023438 -9.441406 10.046875 -9.671875 8.734375 -9.671875 L 7.0625 -9.671875 Z M 7.0625 -4.125 "/></g></g></g><g fill="#ffffff" fill-opacity="1"><g transform="translate(110.313194, 195.263021)"><g><path d="M 0.65625 -11.75 C 0.65625 -15.144531 1.8125 -18.019531 4.125 -20.375 C 6.4375 -22.726562 9.222656 -23.90625 12.484375 -23.90625 C 15.765625 -23.90625 18.550781 -22.734375 20.84375 -20.390625 C 23.144531 -18.046875 24.296875 -15.164062 24.296875 -11.75 C 24.296875 -8.3125 23.164062 -5.421875 20.90625 -3.078125 C 18.65625 -0.742188 15.847656 0.421875 12.484375 0.421875 C 9.054688 0.421875 6.226562 -0.738281 4 -3.0625 C 1.769531 -5.382812 0.65625 -8.28125 0.65625 -11.75 Z M 6.4375 -11.75 C 6.4375 -10.519531 6.625 -9.394531 7 -8.375 C 7.375 -7.363281 8.035156 -6.503906 8.984375 -5.796875 C 9.929688 -5.097656 11.097656 -4.75 12.484375 -4.75 C 14.484375 -4.75 15.988281 -5.429688 17 -6.796875 C 18.007812 -8.160156 18.515625 -9.8125 18.515625 -11.75 C 18.515625 -13.664062 18 -15.3125 16.96875 -16.6875 C 15.9375 -18.0625 14.441406 -18.75 12.484375 -18.75 C 10.554688 -18.75 9.066406 -18.0625 8.015625 -16.6875 C 6.960938 -15.3125 6.4375 -13.664062 6.4375 -11.75 Z M 6.4375 -11.75 "/></g></g></g><g fill="#ffffff" fill-opacity="1"><g transform="translate(139.361752, 195.263021)"><g><path d="M 19.75 -23.46875 L 19.75 -8.34375 C 19.75 -5.457031 18.96875 -3.273438 17.40625 -1.796875 C 15.851562 -0.316406 13.578125 0.421875 10.578125 0.421875 C 7.585938 0.421875 5.3125 -0.316406 3.75 -1.796875 C 2.195312 -3.273438 1.421875 -5.457031 1.421875 -8.34375 L 1.421875 -23.46875 L 6.765625 -23.46875 L 6.765625 -9.90625 C 6.765625 -8.007812 7.0625 -6.691406 7.65625 -5.953125 C 8.257812 -5.210938 9.234375 -4.84375 10.578125 -4.84375 C 11.929688 -4.84375 12.90625 -5.210938 13.5 -5.953125 C 14.09375 -6.691406 14.390625 -8.007812 14.390625 -9.90625 L 14.390625 -23.46875 Z M 19.75 -23.46875 "/></g></g></g><g fill="#ffffff" fill-opacity="1"><g transform="translate(164.626499, 195.263021)"><g><path d="M 7.0625 -14.5625 L 7.0625 0 L 1.703125 0 L 1.703125 -23.46875 L 7.0625 -23.46875 L 16.390625 -8.90625 L 16.453125 -8.90625 L 16.453125 -23.46875 L 21.796875 -23.46875 L 21.796875 0 L 16.453125 0 L 7.109375 -14.5625 Z M 7.0625 -14.5625 "/></g></g></g><g fill="#ffffff" fill-opacity="1"><g transform="translate(192.224113, 195.263021)"><g><path d="M 0.234375 -18.78125 L 0.234375 -23.46875 L 16.734375 -23.46875 L 16.734375 -18.78125 L 11.15625 -18.78125 L 11.15625 0 L 5.796875 0 L 5.796875 -18.78125 Z M 0.234375 -18.78125 "/></g></g></g><g fill="#ffffff" fill-opacity="1"><g transform="translate(213.278305, 195.263021)"><g><path d="M 7.0625 -23.46875 L 7.0625 0 L 1.703125 0 L 1.703125 -23.46875 Z M 7.0625 -23.46875 "/></g></g></g><g fill="#ffffff" fill-opacity="1"><g transform="translate(226.138974, 195.263021)"><g><path d="M 15.28125 -23.46875 L 15.28125 -18.78125 L 7.0625 -18.78125 L 7.0625 -14.109375 L 14.65625 -14.109375 L 14.65625 -9.421875 L 7.0625 -9.421875 L 7.0625 0 L 1.703125 0 L 1.703125 -23.46875 Z M 15.28125 -23.46875 "/></g></g></g><g fill="#ffffff" fill-opacity="1"><g transform="translate(246.36812, 195.263021)"><g><path d="M 19.75 -23.46875 L 19.75 -8.34375 C 19.75 -5.457031 18.96875 -3.273438 17.40625 -1.796875 C 15.851562 -0.316406 13.578125 0.421875 10.578125 0.421875 C 7.585938 0.421875 5.3125 -0.316406 3.75 -1.796875 C 2.195312 -3.273438 1.421875 -5.457031 1.421875 -8.34375 L 1.421875 -23.46875 L 6.765625 -23.46875 L 6.765625 -9.90625 C 6.765625 -8.007812 7.0625 -6.691406 7.65625 -5.953125 C 8.257812 -5.210938 9.234375 -4.84375 10.578125 -4.84375 C 11.929688 -4.84375 12.90625 -5.210938 13.5 -5.953125 C 14.09375 -6.691406 14.390625 -8.007812 14.390625 -9.90625 L 14.390625 -23.46875 Z M 19.75 -23.46875 "/></g></g></g><g fill="#ffffff" fill-opacity="1"><g transform="translate(271.632862, 195.263021)"><g><path d="M 7.0625 -23.46875 L 7.0625 -4.6875 L 15.140625 -4.6875 L 15.140625 0 L 1.703125 0 L 1.703125 -23.46875 Z M 7.0625 -23.46875 "/></g></g></g><g fill="#ffffff" fill-opacity="1"><g transform="translate(126.231741, 232.191665)"><g><path d="M 15.28125 -23.46875 L 15.28125 -18.78125 L 7.0625 -18.78125 L 7.0625 -14.109375 L 14.65625 -14.109375 L 14.65625 -9.421875 L 7.0625 -9.421875 L 7.0625 0 L 1.703125 0 L 1.703125 -23.46875 Z M 15.28125 -23.46875 "/></g></g></g><g fill="#ffffff" fill-opacity="1"><g transform="translate(146.460892, 232.191665)"><g><path d="M 0.65625 -11.75 C 0.65625 -15.144531 1.8125 -18.019531 4.125 -20.375 C 6.4375 -22.726562 9.222656 -23.90625 12.484375 -23.90625 C 15.765625 -23.90625 18.550781 -22.734375 20.84375 -20.390625 C 23.144531 -18.046875 24.296875 -15.164062 24.296875 -11.75 C 24.296875 -8.3125 23.164062 -5.421875 20.90625 -3.078125 C 18.65625 -0.742188 15.847656 0.421875 12.484375 0.421875 C 9.054688 0.421875 6.226562 -0.738281 4 -3.0625 C 1.769531 -5.382812 0.65625 -8.28125 0.65625 -11.75 Z M 6.4375 -11.75 C 6.4375 -10.519531 6.625 -9.394531 7 -8.375 C 7.375 -7.363281 8.035156 -6.503906 8.984375 -5.796875 C 9.929688 -5.097656 11.097656 -4.75 12.484375 -4.75 C 14.484375 -4.75 15.988281 -5.429688 17 -6.796875 C 18.007812 -8.160156 18.515625 -9.8125 18.515625 -11.75 C 18.515625 -13.664062 18 -15.3125 16.96875 -16.6875 C 15.9375 -18.0625 14.441406 -18.75 12.484375 -18.75 C 10.554688 -18.75 9.066406 -18.0625 8.015625 -16.6875 C 6.960938 -15.3125 6.4375 -13.664062 6.4375 -11.75 Z M 6.4375 -11.75 "/></g></g></g><g fill="#ffffff" fill-opacity="1"><g transform="translate(175.509451, 232.191665)"><g><path d="M 0.65625 -11.75 C 0.65625 -15.144531 1.8125 -18.019531 4.125 -20.375 C 6.4375 -22.726562 9.222656 -23.90625 12.484375 -23.90625 C 15.765625 -23.90625 18.550781 -22.734375 20.84375 -20.390625 C 23.144531 -18.046875 24.296875 -15.164062 24.296875 -11.75 C 24.296875 -8.3125 23.164062 -5.421875 20.90625 -3.078125 C 18.65625 -0.742188 15.847656 0.421875 12.484375 0.421875 C 9.054688 0.421875 6.226562 -0.738281 4 -3.0625 C 1.769531 -5.382812 0.65625 -8.28125 0.65625 -11.75 Z M 6.4375 -11.75 C 6.4375 -10.519531 6.625 -9.394531 7 -8.375 C 7.375 -7.363281 8.035156 -6.503906 8.984375 -5.796875 C 9.929688 -5.097656 11.097656 -4.75 12.484375 -4.75 C 14.484375 -4.75 15.988281 -5.429688 17 -6.796875 C 18.007812 -8.160156 18.515625 -9.8125 18.515625 -11.75 C 18.515625 -13.664062 18 -15.3125 16.96875 -16.6875 C 15.9375 -18.0625 14.441406 -18.75 12.484375 -18.75 C 10.554688 -18.75 9.066406 -18.0625 8.015625 -16.6875 C 6.960938 -15.3125 6.4375 -13.664062 6.4375 -11.75 Z M 6.4375 -11.75 "/></g></g></g><g fill="#ffffff" fill-opacity="1"><g transform="translate(204.558008, 232.191665)"><g><path d="M 1.703125 -23.46875 L 8.5 -23.46875 C 11.769531 -23.46875 14.5625 -22.351562 16.875 -20.125 C 19.1875 -17.894531 20.34375 -15.101562 20.34375 -11.75 C 20.34375 -8.375 19.191406 -5.570312 16.890625 -3.34375 C 14.585938 -1.113281 11.789062 0 8.5 0 L 1.703125 0 Z M 7.0625 -4.78125 L 7.875 -4.78125 C 9.832031 -4.78125 11.429688 -5.4375 12.671875 -6.75 C 13.921875 -8.070312 14.550781 -9.726562 14.5625 -11.71875 C 14.5625 -13.707031 13.941406 -15.363281 12.703125 -16.6875 C 11.460938 -18.019531 9.851562 -18.6875 7.875 -18.6875 L 7.0625 -18.6875 Z M 7.0625 -4.78125 "/></g></g></g><g fill="#ffffff" fill-opacity="1"><g transform="translate(229.652052, 232.191665)"><g><path d="M 10.359375 -23.90625 C 11.628906 -23.90625 12.867188 -23.71875 14.078125 -23.34375 C 15.296875 -22.976562 16.195312 -22.613281 16.78125 -22.25 L 17.640625 -21.6875 L 15.484375 -17.40625 C 15.304688 -17.519531 15.066406 -17.664062 14.765625 -17.84375 C 14.460938 -18.03125 13.894531 -18.273438 13.0625 -18.578125 C 12.226562 -18.878906 11.453125 -19.03125 10.734375 -19.03125 C 9.835938 -19.03125 9.144531 -18.835938 8.65625 -18.453125 C 8.175781 -18.078125 7.9375 -17.566406 7.9375 -16.921875 C 7.9375 -16.609375 8.050781 -16.3125 8.28125 -16.03125 C 8.507812 -15.757812 8.894531 -15.46875 9.4375 -15.15625 C 9.988281 -14.84375 10.472656 -14.585938 10.890625 -14.390625 C 11.316406 -14.203125 11.960938 -13.921875 12.828125 -13.546875 C 14.347656 -12.898438 15.644531 -12.019531 16.71875 -10.90625 C 17.789062 -9.800781 18.328125 -8.546875 18.328125 -7.140625 C 18.328125 -5.796875 18.082031 -4.617188 17.59375 -3.609375 C 17.113281 -2.609375 16.453125 -1.820312 15.609375 -1.25 C 14.765625 -0.675781 13.828125 -0.253906 12.796875 0.015625 C 11.773438 0.285156 10.664062 0.421875 9.46875 0.421875 C 8.445312 0.421875 7.441406 0.316406 6.453125 0.109375 C 5.472656 -0.0976562 4.648438 -0.359375 3.984375 -0.671875 C 3.316406 -0.984375 2.71875 -1.289062 2.1875 -1.59375 C 1.65625 -1.894531 1.269531 -2.148438 1.03125 -2.359375 L 0.65625 -2.671875 L 3.328125 -7.171875 C 3.554688 -6.984375 3.867188 -6.738281 4.265625 -6.4375 C 4.660156 -6.144531 5.363281 -5.753906 6.375 -5.265625 C 7.394531 -4.773438 8.296875 -4.53125 9.078125 -4.53125 C 11.335938 -4.53125 12.46875 -5.296875 12.46875 -6.828125 C 12.46875 -7.148438 12.382812 -7.445312 12.21875 -7.71875 C 12.0625 -8 11.773438 -8.273438 11.359375 -8.546875 C 10.953125 -8.828125 10.59375 -9.046875 10.28125 -9.203125 C 9.96875 -9.367188 9.457031 -9.613281 8.75 -9.9375 C 8.039062 -10.269531 7.515625 -10.523438 7.171875 -10.703125 C 5.742188 -11.398438 4.640625 -12.273438 3.859375 -13.328125 C 3.085938 -14.378906 2.703125 -15.515625 2.703125 -16.734375 C 2.703125 -18.835938 3.476562 -20.554688 5.03125 -21.890625 C 6.59375 -23.234375 8.367188 -23.90625 10.359375 -23.90625 Z M 10.359375 -23.90625 "/></g></g></g><g clip-path="url(#190044cb54)"><path fill="#7da03c" d="M 225.949219 97.980469 C 225.792969 97.8125 225.601562 97.671875 225.382812 97.558594 C 225.359375 97.550781 225.339844 97.539062 225.316406 97.53125 C 225.148438 97.457031 224.972656 97.414062 224.792969 97.390625 C 224.898438 96.84375 224.894531 96.15625 224.554688 95.449219 C 224.320312 94.972656 223.957031 94.570312 223.503906 94.257812 L 224.292969 93.089844 C 224.996094 92.042969 224.792969 90.613281 223.839844 89.875 C 223.824219 89.863281 223.804688 89.847656 223.789062 89.835938 C 223.316406 89.496094 222.792969 89.375 222.304688 89.375 C 222.316406 88.695312 222.164062 87.703125 221.355469 86.828125 C 220.832031 86.277344 220.070312 86.046875 219.316406 86.210938 C 218.527344 86.382812 217.902344 86.933594 217.640625 87.691406 L 216.386719 91.34375 C 216.359375 90.867188 216.335938 90.390625 216.308594 89.914062 L 216.296875 89.648438 C 216.285156 89.335938 216.191406 89.039062 216.011719 88.773438 C 215.769531 88.410156 215.335938 87.945312 214.621094 87.773438 C 214.601562 87.769531 214.585938 87.765625 214.566406 87.761719 L 214.566406 87.757812 C 214.082031 87.660156 213.578125 87.777344 213.183594 88.09375 C 212.773438 88.421875 212.527344 88.914062 212.519531 89.441406 L 212.390625 97.191406 C 210.804688 97.550781 209.449219 98.601562 208.699219 100.09375 L 207.75 101.992188 C 207.089844 101.492188 206.382812 100.890625 205.824219 99.847656 C 205.40625 99.058594 205.273438 98.414062 205.15625 97.84375 C 204.996094 97.085938 204.847656 96.367188 204.078125 95.820312 C 203.097656 95.128906 201.664062 95.140625 199.820312 95.847656 C 199.238281 95.414062 198.664062 95.121094 198.109375 94.96875 C 197.6875 93.742188 196.707031 92.777344 195.46875 92.410156 C 194.394531 92.09375 193.242188 92.261719 192.292969 92.820312 C 192.128906 92.019531 191.78125 91.132812 191.066406 90.585938 C 189.871094 89.691406 187.964844 89.742188 186.207031 90.722656 C 185.039062 91.378906 183.578125 91.632812 182.097656 91.4375 C 180.558594 91.222656 179.019531 91.640625 177.882812 92.582031 C 176.476562 93.742188 176.085938 95.3125 175.996094 96.398438 C 175.730469 96.285156 175.425781 96.195312 175.058594 96.140625 C 174.582031 96.078125 174.070312 96.089844 173.582031 96.167969 C 174.375 93.753906 175.242188 91.398438 176.167969 89.148438 C 176.253906 88.941406 176.21875 88.703125 176.082031 88.527344 C 175.941406 88.351562 175.722656 88.265625 175.5 88.300781 C 174.417969 88.46875 172.800781 88.933594 171.234375 90.183594 C 170.535156 90.742188 169.988281 91.355469 169.550781 91.96875 C 169.613281 89.949219 169.675781 87.933594 169.738281 85.898438 C 169.746094 85.679688 169.636719 85.476562 169.457031 85.359375 C 169.273438 85.242188 169.042969 85.226562 168.847656 85.320312 C 167.449219 86.003906 166.273438 87.039062 165.453125 88.316406 C 164.78125 89.367188 164.441406 90.421875 164.28125 91.375 C 162.765625 88.515625 160.921875 85.847656 158.769531 83.425781 C 158.59375 83.230469 158.316406 83.164062 158.070312 83.265625 C 157.828125 83.363281 157.675781 83.605469 157.6875 83.867188 C 157.847656 87.335938 158.382812 90.78125 159.277344 94.125 C 158.664062 94.003906 158.035156 93.90625 157.398438 93.84375 C 155.984375 93.707031 154.539062 93.730469 153.101562 93.914062 C 152.855469 93.945312 152.652344 94.121094 152.585938 94.355469 C 152.515625 94.59375 152.59375 94.851562 152.785156 95.007812 C 153.765625 95.824219 154.84375 96.59375 155.980469 97.289062 C 156.144531 97.386719 156.308594 97.484375 156.476562 97.582031 C 155.015625 97.429688 153.550781 97.390625 152.105469 97.457031 C 151.855469 97.472656 151.636719 97.632812 151.550781 97.867188 C 151.464844 98.101562 151.53125 98.363281 151.714844 98.535156 C 153.242188 99.949219 154.859375 101.316406 156.535156 102.621094 C 154.082031 103.964844 152.53125 106.371094 152.480469 109.007812 C 151.605469 110.246094 151.136719 111.667969 151.136719 113.140625 C 151.136719 113.644531 151.199219 114.144531 151.308594 114.636719 L 149.148438 114.636719 C 148.960938 114.636719 148.78125 114.722656 148.664062 114.871094 C 148.546875 115.023438 148.503906 115.214844 148.546875 115.402344 C 149.4375 119.140625 149.898438 122.902344 149.917969 126.578125 C 149.929688 130.089844 149.542969 132.785156 149.167969 135.386719 C 148.707031 138.582031 148.273438 141.601562 148.53125 145.917969 C 148.707031 148.859375 149.179688 151.8125 149.9375 154.695312 C 150.011719 154.96875 150.253906 155.15625 150.535156 155.15625 L 221.015625 155.15625 C 221.300781 155.15625 221.546875 154.96875 221.617188 154.695312 C 222.371094 151.8125 222.84375 148.859375 223.023438 145.917969 C 223.28125 141.601562 222.847656 138.582031 222.386719 135.386719 C 222.011719 132.785156 221.625 130.089844 221.636719 126.578125 C 221.652344 122.898438 222.113281 119.140625 223.007812 115.402344 C 223.050781 115.214844 223.007812 115.023438 222.890625 114.871094 C 222.773438 114.722656 222.59375 114.636719 222.402344 114.636719 L 220.375 114.636719 C 220.65625 114.394531 220.929688 114.140625 221.183594 113.871094 C 221.519531 113.515625 221.832031 113.140625 222.105469 112.765625 C 223.484375 110.886719 223.554688 108.4375 222.300781 106.640625 C 223.585938 104.535156 224.867188 102.425781 226.148438 100.328125 C 226.628906 99.550781 226.542969 98.582031 225.949219 97.980469 Z M 223.4375 95.992188 C 223.808594 96.75 223.5 97.511719 223.367188 97.78125 C 223.121094 97.964844 222.917969 98.207031 222.78125 98.480469 L 221.027344 101.976562 C 221.265625 99.929688 221.515625 97.695312 221.582031 97.113281 L 222.8125 95.285156 C 223.039062 95.441406 223.277344 95.664062 223.4375 95.992188 Z M 219.472656 104.570312 C 219.230469 104.492188 219 104.433594 218.789062 104.394531 C 219.179688 103.320312 219.226562 102.152344 218.921875 101.0625 L 220.078125 99.34375 C 219.875 101.132812 219.609375 103.40625 219.472656 104.570312 Z M 223.070312 90.847656 C 223.523438 91.1875 223.613281 91.882812 223.265625 92.398438 L 220.46875 96.546875 C 220.464844 96.550781 220.464844 96.558594 220.460938 96.5625 L 218.34375 99.699219 C 218.210938 99.480469 218.0625 99.277344 217.898438 99.082031 L 221.988281 90.648438 C 222.242188 90.59375 222.65625 90.5625 223.039062 90.824219 C 223.050781 90.832031 223.058594 90.839844 223.070312 90.847656 Z M 218.8125 88.097656 C 218.929688 87.753906 219.214844 87.5 219.578125 87.421875 C 219.914062 87.351562 220.234375 87.445312 220.476562 87.703125 C 221.085938 88.359375 221.097656 89.183594 221.050781 89.609375 C 221.042969 89.703125 221.015625 89.792969 220.976562 89.886719 C 220.96875 89.902344 220.960938 89.917969 220.957031 89.933594 C 220.957031 89.933594 220.957031 89.933594 220.957031 89.9375 L 216.953125 98.195312 C 216.929688 98.179688 216.914062 98.164062 216.890625 98.148438 C 216.878906 98.136719 216.867188 98.132812 216.855469 98.125 C 216.84375 98.113281 216.832031 98.105469 216.820312 98.097656 C 216.441406 97.839844 216.035156 97.632812 215.597656 97.453125 Z M 213.953125 89.0625 C 214.011719 89.015625 214.132812 88.945312 214.289062 88.96875 C 214.296875 88.972656 214.308594 88.976562 214.316406 88.976562 C 214.652344 89.054688 214.863281 89.28125 214.980469 89.460938 C 215.03125 89.535156 215.054688 89.609375 215.058594 89.703125 L 215.074219 89.980469 C 215.152344 91.480469 215.234375 92.984375 215.316406 94.460938 L 214.410156 97.109375 C 214.152344 97.066406 213.890625 97.046875 213.632812 97.046875 L 213.757812 89.460938 C 213.757812 89.308594 213.832031 89.160156 213.953125 89.0625 Z M 213.089844 98.320312 C 213.613281 98.246094 214.136719 98.277344 214.671875 98.433594 C 214.773438 98.457031 214.878906 98.492188 214.984375 98.535156 C 215.390625 98.6875 215.753906 98.875 216.097656 99.105469 C 216.132812 99.132812 216.167969 99.160156 216.207031 99.179688 C 216.410156 99.324219 216.574219 99.46875 216.722656 99.621094 C 217.144531 100.042969 217.46875 100.570312 217.660156 101.152344 C 218.054688 102.285156 217.9375 103.542969 217.34375 104.613281 C 216.699219 105.789062 216.019531 106.992188 215.269531 108.296875 C 215.074219 108.640625 214.875 108.976562 214.671875 109.320312 C 213.597656 111.160156 212.515625 112.945312 211.457031 114.636719 L 206.570312 114.636719 C 206.53125 114.148438 206.480469 113.65625 206.410156 113.167969 C 206.363281 112.867188 206.101562 112.640625 205.796875 112.640625 L 205.085938 112.640625 C 206.101562 112.097656 206.78125 111.414062 207.128906 110.570312 C 207.308594 110.144531 207.359375 109.769531 207.414062 109.375 C 207.484375 108.890625 207.554688 108.390625 207.878906 107.621094 C 208.054688 107.195312 208.230469 106.890625 208.390625 106.644531 L 211.277344 108.28125 C 211.375 108.335938 211.480469 108.359375 211.582031 108.359375 C 211.800781 108.359375 212.007812 108.246094 212.121094 108.046875 C 212.289062 107.746094 212.1875 107.367188 211.890625 107.199219 L 209.15625 105.652344 C 209.390625 105.34375 209.574219 105 209.578125 104.484375 C 209.59375 103.707031 209.203125 103.183594 208.742188 102.769531 L 209.804688 100.652344 C 210.441406 99.382812 211.695312 98.492188 213.089844 98.320312 Z M 166.898438 108.953125 C 167.40625 108.570312 167.957031 108.253906 168.578125 107.996094 C 168.601562 107.984375 168.628906 107.976562 168.6875 107.957031 C 169.164062 107.765625 169.648438 107.628906 170.140625 107.542969 C 172.074219 107.1875 174.082031 107.566406 175.675781 108.554688 C 175.683594 108.558594 175.6875 108.5625 175.695312 108.566406 C 175.703125 108.570312 175.703125 108.578125 175.710938 108.582031 C 177.621094 109.78125 178.761719 111.734375 178.761719 113.804688 C 178.761719 114.078125 178.734375 114.355469 178.695312 114.636719 L 172.242188 114.636719 C 172.273438 114.199219 172.3125 113.769531 172.375 113.347656 C 172.402344 113.171875 172.347656 112.992188 172.230469 112.855469 C 172.113281 112.71875 171.941406 112.640625 171.761719 112.640625 L 167.964844 112.640625 C 167.875 111.378906 167.449219 110.171875 166.714844 109.105469 C 166.773438 109.054688 166.832031 109.007812 166.898438 108.953125 Z M 172.015625 101.351562 C 172.101562 101.511719 172.191406 101.679688 172.289062 101.855469 C 172.480469 102.210938 172.691406 102.597656 172.917969 103.027344 C 173.566406 104.246094 174.171875 105.488281 174.75 106.734375 C 173.75 106.363281 172.679688 106.171875 171.578125 106.171875 C 171.328125 106.171875 171.074219 106.1875 170.824219 106.207031 C 171.175781 104.605469 171.570312 102.980469 172.015625 101.351562 Z M 171.0625 113.878906 C 171.011719 114.320312 170.984375 114.765625 170.964844 115.230469 C 170.964844 115.238281 170.964844 115.246094 170.964844 115.253906 C 170.964844 115.257812 170.964844 115.257812 170.964844 115.257812 C 170.761719 120.492188 172.65625 125.597656 176.171875 129.261719 C 178.96875 132.179688 182.46875 133.855469 185.777344 133.855469 C 189.085938 133.855469 192.585938 132.179688 195.382812 129.261719 C 198.902344 125.589844 200.800781 120.476562 200.589844 115.234375 C 200.570312 114.765625 200.539062 114.320312 200.492188 113.878906 L 205.253906 113.878906 C 205.3125 114.351562 205.355469 114.824219 205.382812 115.292969 C 205.730469 121.300781 203.558594 127.265625 199.425781 131.65625 C 195.664062 135.652344 190.6875 137.941406 185.777344 137.941406 C 180.867188 137.941406 175.894531 135.652344 172.132812 131.65625 C 167.996094 127.265625 165.824219 121.300781 166.171875 115.292969 C 166.199219 114.824219 166.242188 114.351562 166.300781 113.878906 Z M 203.363281 96.835938 C 203.71875 97.085938 203.796875 97.402344 203.941406 98.097656 C 204.070312 98.714844 204.230469 99.484375 204.730469 100.429688 C 205.492188 101.859375 206.519531 102.621094 207.269531 103.183594 C 207.378906 103.265625 207.488281 103.347656 207.59375 103.425781 C 208.171875 103.871094 208.347656 104.113281 208.339844 104.464844 C 208.339844 104.707031 208.261719 104.808594 207.964844 105.160156 C 207.890625 105.246094 207.8125 105.339844 207.726562 105.441406 C 207.550781 105.664062 207.335938 105.964844 207.109375 106.378906 C 207.03125 106.0625 206.941406 105.753906 206.828125 105.453125 C 206.554688 104.714844 206.179688 104.019531 205.714844 103.378906 C 205.511719 103.105469 205.125 103.042969 204.847656 103.246094 C 204.574219 103.449219 204.511719 103.835938 204.714844 104.113281 C 205.113281 104.660156 205.433594 105.257812 205.667969 105.886719 C 206.160156 107.195312 206.257812 108.664062 205.964844 110.132812 C 205.515625 111.160156 204.203125 111.914062 202.054688 112.378906 C 202.734375 111.296875 203 110.253906 202.84375 109.261719 C 202.585938 107.640625 201.285156 106.628906 200.238281 105.816406 C 199.585938 105.304688 198.910156 104.78125 198.964844 104.421875 C 199.011719 104.144531 199.519531 103.898438 199.953125 103.71875 C 200.113281 103.652344 200.277344 103.589844 200.445312 103.523438 C 201.523438 103.109375 202.863281 102.589844 203.195312 101.285156 C 203.550781 99.859375 202.4375 98.554688 201.539062 97.503906 C 201.4375 97.382812 201.207031 97.109375 200.890625 96.789062 C 202 96.453125 202.84375 96.46875 203.363281 96.835938 Z M 199.335938 97.046875 C 199.964844 97.558594 200.4375 98.121094 200.601562 98.3125 C 201.347656 99.1875 202.195312 100.179688 201.996094 100.980469 C 201.828125 101.640625 200.957031 101.996094 200.089844 102.332031 C 199.742188 101.425781 199.242188 100.667969 198.578125 100.085938 C 198.300781 99.84375 198.007812 99.652344 197.699219 99.488281 L 197.699219 97.917969 C 197.699219 97.574219 197.421875 97.296875 197.082031 97.296875 C 196.738281 97.296875 196.460938 97.574219 196.460938 97.917969 L 196.460938 99.027344 C 196.035156 98.929688 195.605469 98.871094 195.15625 98.8125 C 194.429688 98.71875 193.671875 98.613281 192.816406 98.328125 C 193.480469 98.160156 194.105469 97.910156 194.6875 97.570312 C 194.855469 97.472656 195.003906 97.378906 195.121094 97.292969 C 195.488281 97.042969 195.75 96.804688 195.957031 96.613281 C 196.285156 96.316406 196.449219 96.164062 196.800781 96.09375 C 197.027344 96.042969 197.253906 96.042969 197.515625 96.097656 C 198.070312 96.191406 198.671875 96.503906 199.3125 97.027344 C 199.320312 97.035156 199.328125 97.042969 199.335938 97.046875 Z M 191.621094 94.578125 C 192.613281 94.914062 193.445312 95.621094 193.964844 96.546875 C 193.050781 97.050781 192.007812 97.316406 190.839844 97.324219 C 190.421875 96.996094 190.140625 96.664062 189.875 96.34375 C 189.453125 95.828125 189.019531 95.300781 188.140625 95 C 188.75 94.628906 189.601562 94.289062 190.644531 94.375 C 190.976562 94.398438 191.300781 94.46875 191.621094 94.578125 Z M 195.117188 93.601562 C 195.792969 93.800781 196.355469 94.261719 196.707031 94.863281 C 196.65625 94.871094 196.601562 94.867188 196.546875 94.878906 C 195.867188 95.019531 195.503906 95.347656 195.125 95.695312 C 195.074219 95.738281 195.027344 95.785156 194.976562 95.828125 C 194.488281 95.003906 193.804688 94.320312 192.992188 93.847656 C 193.632812 93.492188 194.402344 93.386719 195.117188 93.601562 Z M 178.667969 93.539062 C 179.542969 92.816406 180.730469 92.5 181.933594 92.664062 C 183.679688 92.898438 185.410156 92.589844 186.808594 91.804688 C 188.117188 91.074219 189.53125 90.984375 190.316406 91.578125 C 190.78125 91.925781 191 92.601562 191.105469 93.191406 C 190.984375 93.171875 190.863281 93.148438 190.742188 93.136719 C 188.523438 92.964844 186.964844 94.246094 186.402344 94.792969 C 184.851562 94.910156 183.511719 95.777344 182.21875 96.621094 C 181.691406 96.96875 181.179688 97.296875 180.683594 97.558594 C 180.660156 97.121094 180.691406 96.613281 180.863281 96.074219 C 181.011719 95.605469 181.25 95.160156 181.570312 94.753906 C 181.78125 94.484375 181.738281 94.09375 181.46875 93.882812 C 181.199219 93.671875 180.8125 93.714844 180.601562 93.984375 C 180.183594 94.511719 179.878906 95.089844 179.683594 95.699219 C 179.449219 96.441406 179.390625 97.234375 179.492188 98.023438 C 179.03125 98.121094 178.613281 98.09375 178.207031 97.933594 C 177.796875 97.773438 177.523438 97.53125 177.214844 97.253906 C 177.179688 96.636719 177.199219 94.757812 178.667969 93.539062 Z M 174.890625 97.371094 C 175.539062 97.460938 175.871094 97.71875 176.207031 98.011719 L 176.324219 98.121094 C 176.691406 98.457031 177.109375 98.835938 177.757812 99.089844 C 178.589844 99.414062 179.457031 99.398438 180.40625 99.046875 C 180.410156 99.042969 180.414062 99.042969 180.417969 99.039062 C 180.429688 99.035156 180.4375 99.03125 180.449219 99.027344 C 181.285156 98.710938 182.101562 98.179688 182.894531 97.660156 C 184.117188 96.859375 185.382812 96.035156 186.699219 96.011719 C 186.9375 96.003906 187.191406 96.035156 187.445312 96.09375 C 188.207031 96.261719 188.472656 96.589844 188.917969 97.128906 C 189.234375 97.515625 189.628906 97.996094 190.277344 98.460938 C 190.285156 98.464844 190.289062 98.464844 190.296875 98.46875 C 190.722656 98.773438 191.214844 99.042969 191.808594 99.285156 C 193.046875 99.792969 194.085938 99.925781 195 100.042969 C 195.6875 100.132812 196.28125 100.210938 196.828125 100.433594 C 196.835938 100.4375 196.84375 100.4375 196.851562 100.441406 C 197.175781 100.578125 197.476562 100.769531 197.761719 101.019531 C 198.28125 101.476562 198.671875 102.082031 198.949219 102.816406 C 198.351562 103.128906 197.855469 103.542969 197.742188 104.222656 C 197.566406 105.308594 198.492188 106.03125 199.476562 106.796875 C 200.398438 107.507812 201.4375 108.320312 201.617188 109.457031 C 201.769531 110.398438 201.324219 111.46875 200.304688 112.640625 L 199.789062 112.640625 C 199.609375 112.640625 199.441406 112.71875 199.324219 112.855469 C 199.203125 112.992188 199.152344 113.171875 199.179688 113.351562 C 199.238281 113.769531 199.28125 114.199219 199.3125 114.636719 L 188.203125 114.636719 L 188.910156 102.816406 C 189.003906 101.203125 188.335938 99.59375 187.132812 98.535156 C 186.898438 98.289062 186.503906 98.28125 186.261719 98.519531 C 186.011719 98.753906 186.003906 99.144531 186.238281 99.394531 C 186.25 99.40625 186.285156 99.4375 186.296875 99.449219 C 187.234375 100.273438 187.746094 101.507812 187.671875 102.742188 L 186.964844 114.636719 L 185.210938 114.636719 C 184.910156 113.222656 184.6875 111.773438 184.554688 110.320312 C 184.425781 108.902344 184.375 107.4375 184.410156 105.976562 C 184.417969 105.632812 184.148438 105.347656 183.804688 105.339844 C 183.457031 105.328125 183.179688 105.605469 183.171875 105.949219 C 183.136719 107.457031 183.1875 108.96875 183.324219 110.433594 C 183.453125 111.847656 183.664062 113.257812 183.945312 114.636719 L 182.503906 114.636719 C 182.464844 112.515625 182.195312 110.390625 181.679688 108.3125 C 181.214844 106.449219 180.5625 104.628906 179.730469 102.898438 C 179.582031 102.585938 179.210938 102.457031 178.90625 102.605469 C 178.597656 102.753906 178.464844 103.125 178.613281 103.433594 C 179.410156 105.089844 180.035156 106.832031 180.480469 108.609375 C 180.96875 110.589844 181.226562 112.617188 181.265625 114.636719 L 179.949219 114.636719 C 179.984375 114.359375 180.003906 114.082031 180.003906 113.808594 C 180.003906 111.371094 178.707031 109.089844 176.539062 107.652344 C 175.769531 105.90625 174.921875 104.15625 174.011719 102.445312 C 173.78125 102.015625 173.570312 101.621094 173.375 101.265625 C 172.957031 100.492188 172.625 99.882812 172.417969 99.398438 C 172.125 98.71875 172.140625 98.433594 172.257812 98.207031 C 172.371094 97.988281 172.585938 97.800781 172.898438 97.648438 C 173.433594 97.386719 174.21875 97.285156 174.890625 97.371094 Z M 172.003906 91.152344 C 172.898438 90.441406 173.820312 90.027344 174.570312 89.792969 C 173.691406 92.007812 172.867188 94.316406 172.113281 96.667969 C 171.679688 96.929688 171.355469 97.25 171.160156 97.636719 C 170.792969 98.34375 170.949219 99.054688 171.195312 99.679688 C 170.550781 101.941406 169.984375 104.203125 169.511719 106.417969 C 169.375 106.445312 169.238281 106.46875 169.105469 106.507812 L 169.464844 94.816406 C 169.816406 93.777344 170.542969 92.324219 172.003906 91.152344 Z M 166.496094 88.988281 C 167.082031 88.070312 167.804688 87.425781 168.464844 86.972656 C 168.382812 89.542969 168.304688 92.109375 168.230469 94.679688 L 168.019531 101.449219 C 167.503906 99.167969 166.796875 96.933594 165.890625 94.769531 C 165.75 94.414062 165.597656 94.078125 165.441406 93.742188 C 165.320312 92.730469 165.3125 90.835938 166.496094 88.988281 Z M 159.046875 85.675781 C 161.136719 88.265625 162.890625 91.105469 164.269531 94.148438 C 164.273438 94.152344 164.273438 94.15625 164.273438 94.160156 C 164.4375 94.511719 164.59375 94.867188 164.746094 95.242188 C 166.324219 99.015625 167.296875 102.996094 167.644531 107.074219 C 167.324219 107.230469 167.011719 107.402344 166.707031 107.597656 C 164.917969 104.894531 163.398438 102.007812 162.199219 98.996094 C 162.199219 98.992188 162.199219 98.988281 162.195312 98.984375 C 161.976562 98.433594 161.761719 97.867188 161.558594 97.289062 C 161.261719 96.449219 160.992188 95.609375 160.753906 94.800781 C 160.75 94.792969 160.75 94.789062 160.746094 94.78125 C 159.886719 91.816406 159.316406 88.757812 159.046875 85.675781 Z M 154.808594 95.015625 C 155.636719 94.980469 156.464844 95 157.28125 95.078125 C 158.089844 95.160156 158.890625 95.292969 159.664062 95.480469 C 159.882812 96.207031 160.128906 96.953125 160.390625 97.703125 C 160.449219 97.863281 160.503906 98.019531 160.5625 98.175781 C 159.210938 97.644531 157.890625 96.992188 156.621094 96.226562 C 155.996094 95.84375 155.390625 95.441406 154.808594 95.015625 Z M 157.589844 98.96875 C 158.78125 99.144531 159.980469 99.402344 161.160156 99.730469 C 162.128906 102.128906 163.292969 104.449219 164.632812 106.660156 C 162.558594 105.421875 160.546875 104.085938 158.628906 102.664062 L 158.078125 102.253906 C 156.574219 101.113281 155.109375 99.910156 153.707031 98.667969 C 155 98.679688 156.300781 98.78125 157.589844 98.96875 Z M 157.625 103.460938 L 157.894531 103.664062 C 158.78125 104.320312 159.695312 104.949219 160.617188 105.570312 C 160.269531 105.53125 159.917969 105.507812 159.5625 105.507812 C 157.484375 105.507812 155.507812 106.203125 153.984375 107.417969 C 154.519531 105.726562 155.828125 104.277344 157.625 103.460938 Z M 152.375 113.140625 C 152.375 111.871094 152.792969 110.640625 153.585938 109.585938 C 154.929688 107.808594 157.160156 106.75 159.5625 106.75 C 161.863281 106.75 164.042969 107.742188 165.394531 109.410156 C 166.171875 110.363281 166.625 111.472656 166.726562 112.640625 L 165.757812 112.640625 C 165.449219 112.640625 165.191406 112.867188 165.144531 113.167969 C 165.074219 113.65625 165.023438 114.148438 164.984375 114.636719 L 152.578125 114.636719 C 152.445312 114.144531 152.375 113.644531 152.375 113.140625 Z M 221.105469 112.03125 C 220.863281 112.367188 220.585938 112.699219 220.285156 113.019531 C 219.703125 113.632812 219.035156 114.171875 218.308594 114.636719 L 212.917969 114.636719 C 213.761719 113.273438 214.617188 111.855469 215.46875 110.40625 L 217.46875 111.21875 C 217.542969 111.246094 217.621094 111.261719 217.699219 111.261719 C 217.945312 111.261719 218.175781 111.117188 218.273438 110.875 C 218.402344 110.558594 218.25 110.195312 217.933594 110.066406 L 216.101562 109.324219 C 216.179688 109.1875 216.261719 109.050781 216.34375 108.910156 C 217.023438 107.730469 217.644531 106.628906 218.234375 105.5625 C 218.605469 105.605469 219.144531 105.714844 219.710938 105.996094 C 220.234375 106.253906 220.660156 106.578125 220.996094 106.964844 C 221.015625 106.992188 221.035156 107.019531 221.058594 107.042969 C 221.0625 107.046875 221.101562 107.089844 221.101562 107.09375 C 221.160156 107.15625 221.207031 107.21875 221.253906 107.289062 C 222.226562 108.636719 222.167969 110.585938 221.105469 112.03125 Z M 225.09375 99.675781 C 223.878906 101.671875 222.660156 103.675781 221.441406 105.675781 C 221.242188 105.5 221.027344 105.339844 220.800781 105.191406 L 223.886719 99.035156 C 223.949219 98.910156 224.054688 98.800781 224.171875 98.726562 C 224.179688 98.722656 224.183594 98.714844 224.1875 98.710938 C 224.296875 98.648438 224.546875 98.535156 224.816406 98.667969 C 224.828125 98.671875 224.84375 98.679688 224.855469 98.683594 C 224.933594 98.726562 224.996094 98.773438 225.058594 98.839844 C 225.28125 99.066406 225.246094 99.433594 225.09375 99.675781 Z M 225.09375 99.675781 " fill-opacity="1" fill-rule="nonzero"/></g><path fill="#7da03c" d="M 190.394531 113.832031 C 190.472656 113.863281 190.554688 113.878906 190.636719 113.878906 C 190.878906 113.878906 191.105469 113.738281 191.207031 113.503906 C 191.671875 112.40625 192.042969 111.261719 192.316406 110.09375 C 192.589844 108.90625 192.761719 107.691406 192.820312 106.488281 C 192.835938 106.144531 192.574219 105.855469 192.234375 105.835938 C 191.898438 105.824219 191.601562 106.082031 191.585938 106.425781 C 191.527344 107.558594 191.367188 108.695312 191.109375 109.8125 C 190.855469 110.910156 190.503906 111.988281 190.066406 113.019531 C 189.933594 113.332031 190.082031 113.695312 190.394531 113.832031 Z M 190.394531 113.832031 " fill-opacity="1" fill-rule="nonzero"/><path fill="#7da03c" d="M 194.789062 113.691406 C 194.984375 113.691406 195.171875 113.601562 195.292969 113.433594 C 195.785156 112.75 196.222656 112.007812 196.597656 111.238281 C 196.992188 110.425781 197.316406 109.605469 197.554688 108.792969 C 197.652344 108.464844 197.46875 108.117188 197.140625 108.019531 C 196.8125 107.921875 196.46875 108.109375 196.371094 108.4375 C 196.148438 109.1875 195.851562 109.945312 195.484375 110.695312 C 195.140625 111.402344 194.738281 112.082031 194.289062 112.710938 C 194.089844 112.992188 194.152344 113.378906 194.429688 113.578125 C 194.539062 113.65625 194.664062 113.691406 194.789062 113.691406 Z M 194.789062 113.691406 " fill-opacity="1" fill-rule="nonzero"/></svg>